<?xml version="1.0" encoding="UTF-8"?>
<svg width="77px" height="56px" viewBox="0 0 77 56" version="1.1" xmlns="http://www.w3.org/2000/svg" xmlns:xlink="http://www.w3.org/1999/xlink">
    <!-- Generator: Sketch 53.1 (72631) - https://sketchapp.com -->
    <title>noun_Communication_1970166</title>
    <desc>Created with Sketch.</desc>
    <g id="Symbols" stroke="none" stroke-width="1" fill="none" fill-rule="evenodd">
        <g id="UI-/-icons-/-Features-communication" transform="translate(-6.000000, -2.000000)" fill="#000000" fill-rule="nonzero">
            <g id="noun_Communication_1970166" transform="translate(6.000000, 2.000000)">
                <g id="Group">
                    <path d="M23.5010417,40.48 C20.0520833,40.48 16.6833333,39.52 13.7958333,37.68 C13.3947917,37.44 12.99375,37.36 12.5927083,37.36 C12.271875,37.36 11.9510417,37.44 11.6302083,37.6 L5.93541667,40.16 L8.50208333,34.48 C8.82291667,33.76 8.74270833,32.96 8.34166667,32.32 C6.496875,29.44 5.534375,26.08 5.534375,22.64 C5.534375,12.72 13.5552083,4.72 23.5010417,4.72 C27.671875,4.72 31.521875,6.16 34.5697917,8.48 C35.853125,7.52 37.1364583,6.64 38.5802083,5.92 C34.5697917,2.32 29.2760417,0.16 23.5010417,0.16 C11.06875,0.16 0.9625,10.24 0.9625,22.64 C0.9625,26.56 2.00520833,30.32 3.85,33.68 L0.721875,40.56 C0.0802083333,41.92 0.401041667,43.52 1.44375,44.56 C2.165625,45.2 3.04791667,45.6 4.01041667,45.6 C4.49166667,45.6 5.053125,45.52 5.534375,45.28 L12.4322917,42.16 C15.8010417,44.08 19.5708333,45.04 23.5010417,45.04 C24.54375,45.04 25.5864583,44.96 26.6291667,44.8 C25.9072917,43.44 25.265625,42 24.7041667,40.48 C24.303125,40.48 23.9020833,40.48 23.5010417,40.48 Z" id="Path"></path>
                    <path d="M76.4385417,53.68 L72.1072917,44.16 C74.5135417,40.4 75.9572917,36 75.9572917,31.2 C75.9572917,17.92 65.209375,7.2 51.8947917,7.2 C38.5802083,7.2 27.8322917,17.92 27.8322917,31.2 C27.8322917,44.48 38.5802083,55.2 51.8947917,55.2 C56.7072917,55.2 61.11875,53.76 64.8885417,51.36 L74.4333333,55.68 C75.7166667,56.32 77.0802083,54.96 76.4385417,53.68 Z M39.8635417,34.88 C37.8583333,34.88 36.1739583,33.2 36.1739583,31.2 C36.1739583,29.2 37.8583333,27.52 39.8635417,27.52 C41.86875,27.52 43.553125,29.2 43.553125,31.2 C43.553125,33.2 41.86875,34.88 39.8635417,34.88 Z M51.8145833,34.88 C49.809375,34.88 48.125,33.2 48.125,31.2 C48.125,29.2 49.809375,27.52 51.8145833,27.52 C53.8197917,27.52 55.5041667,29.2 55.5041667,31.2 C55.5041667,33.2 53.8197917,34.88 51.8145833,34.88 Z M63.765625,34.88 C61.7604167,34.88 60.0760417,33.2 60.0760417,31.2 C60.0760417,29.2 61.7604167,27.52 63.765625,27.52 C65.7708333,27.52 67.4552083,29.2 67.4552083,31.2 C67.4552083,33.2 65.8510417,34.88 63.765625,34.88 Z" id="Shape"></path>
                </g>
            </g>
        </g>
    </g>
</svg>