<?xml version="1.0" encoding="UTF-8"?>
<svg width="32px" height="32px" viewBox="0 0 32 32" version="1.1" xmlns="http://www.w3.org/2000/svg" xmlns:xlink="http://www.w3.org/1999/xlink">
    <!-- Generator: Sketch 53.1 (72631) - https://sketchapp.com -->
    <title>Icons / 32px / Heart</title>
    <desc>Created with Sketch.</desc>
    <g id="Symbols" stroke="none" stroke-width="1" fill="none" fill-rule="evenodd">
        <g id="UI-/-Landing-/-Feature">
            <g id="Feature">
                <g id="Icons-/-32px-/-Heart">
                    <rect id="Icon-Bg" fill="#3E78B2" x="0" y="0" width="32" height="32" rx="10"></rect>
                    <g id="Chipicon" stroke-width="1" transform="translate(4.000000, 4.000000)">
                        <g id="Group-3" transform="translate(20.000000, 7.000000)" fill="#FFFFFF">
                            <rect id="Rectangle" x="0" y="0" width="4" height="2" rx="1"></rect>
                            <rect id="Rectangle-Copy" x="0" y="4" width="4" height="2" rx="1"></rect>
                            <rect id="Rectangle-Copy-2" x="0" y="8" width="4" height="2" rx="1"></rect>
                        </g>
                        <g id="Group-2" transform="translate(0.000000, 7.000000)" fill="#FFFFFF">
                            <rect id="Rectangle-Copy-3" x="0" y="0" width="4" height="2" rx="1"></rect>
                            <rect id="Rectangle-Copy-4" x="0" y="4" width="4" height="2" rx="1"></rect>
                            <rect id="Rectangle-Copy-5" x="0" y="8" width="4" height="2" rx="1"></rect>
                        </g>
                        <g id="Group-Copy" transform="translate(12.000000, 22.000000) rotate(90.000000) translate(-12.000000, -22.000000) translate(10.000000, 17.000000)" fill="#FFFFFF">
                            <rect id="Rectangle-Copy-6" transform="translate(2.000000, 1.000000) rotate(180.000000) translate(-2.000000, -1.000000) " x="0" y="0" width="4" height="2" rx="1"></rect>
                            <rect id="Rectangle-Copy-7" transform="translate(2.000000, 5.000000) rotate(180.000000) translate(-2.000000, -5.000000) " x="0" y="4" width="4" height="2" rx="1"></rect>
                            <rect id="Rectangle-Copy-8" transform="translate(2.000000, 9.000000) rotate(180.000000) translate(-2.000000, -9.000000) " x="0" y="8" width="4" height="2" rx="1"></rect>
                        </g>
                        <g id="Group" transform="translate(12.000000, 2.000000) rotate(90.000000) translate(-12.000000, -2.000000) translate(10.000000, -3.000000)" fill="#FFFFFF">
                            <rect id="Rectangle-Copy-6" transform="translate(2.000000, 1.000000) rotate(180.000000) translate(-2.000000, -1.000000) " x="0" y="0" width="4" height="2" rx="1"></rect>
                            <rect id="Rectangle-Copy-7" transform="translate(2.000000, 5.000000) rotate(180.000000) translate(-2.000000, -5.000000) " x="0" y="4" width="4" height="2" rx="1"></rect>
                            <rect id="Rectangle-Copy-8" transform="translate(2.000000, 9.000000) rotate(180.000000) translate(-2.000000, -9.000000) " x="0" y="8" width="4" height="2" rx="1"></rect>
                        </g>
                        <rect id="Rectangle" stroke="#FFFFFF" stroke-width="2" x="4" y="4" width="16" height="16" rx="2"></rect>
                    </g>
                </g>
            </g>
        </g>
    </g>
</svg>