<?xml version="1.0" encoding="UTF-8"?>
<svg width="50px" height="60px" viewBox="0 0 50 60" version="1.1" xmlns="http://www.w3.org/2000/svg" xmlns:xlink="http://www.w3.org/1999/xlink">
    <!-- Generator: Sketch 53.1 (72631) - https://sketchapp.com -->
    <title>noun_papers_2044084</title>
    <desc>Created with Sketch.</desc>
    <g id="Symbols" stroke="none" stroke-width="1" fill="none" fill-rule="evenodd">
        <g id="UI-/-icons-/-Features-management" transform="translate(-20.000000, 0.000000)" fill="#000000" fill-rule="nonzero">
            <g id="noun_papers_2044084" transform="translate(20.000000, 0.000000)">
                <path d="M49.75,0.3125 L9.375,0.3125 L9.375,9.4375 L0.25,9.4375 L0.25,59.6875 L40.625,59.6875 L40.625,50.5625 L49.75,50.5625 L49.75,0.3125 Z M37.875,56.9375 L3,56.9375 L3,12.1875 L9.375,12.1875 L9.375,50.5625 L37.875,50.5625 L37.875,56.9375 Z M47,47.8125 L12.125,47.8125 L12.125,3.0625 L47,3.0625 L47,47.8125 L47,47.8125 Z" id="Shape"></path>
                <rect id="Rectangle" x="18.375" y="11" width="22.375" height="2.75"></rect>
                <rect id="Rectangle" x="18.375" y="19.75" width="22.375" height="2.75"></rect>
                <rect id="Rectangle" x="18.375" y="28.4375" width="22.375" height="2.75"></rect>
                <rect id="Rectangle" x="18.375" y="37.1875" width="22.375" height="2.75"></rect>
            </g>
        </g>
    </g>
</svg>