<?xml version="1.0" encoding="UTF-8"?>
<svg width="32px" height="32px" viewBox="0 0 32 32" version="1.1" xmlns="http://www.w3.org/2000/svg" xmlns:xlink="http://www.w3.org/1999/xlink">
    <!-- Generator: Sketch 53.1 (72631) - https://sketchapp.com -->
    <title>Icons / 32px / Clock</title>
    <desc>Created with Sketch.</desc>
    <g id="Icons-/-32px-/-Clock" stroke="none" stroke-width="1" fill="none" fill-rule="evenodd">
        <g id="Clockicon">
            <rect id="Icon-Bg-Copy-2" fill="#3E78B2" x="0" y="0" width="32" height="32" rx="10"></rect>
            <g id="Alarm-clock-Copy" transform="translate(7.000000, 7.000000)">
                <rect id="Rectangle" fill="#07889B" opacity="0" x="0" y="0" width="18" height="18"></rect>
                <path d="M1.91803279,0.454918033 C1.74827313,0.454918033 1.61065574,0.31730064 1.61065574,0.147540984 L1.61065574,3.68852459 C1.61065574,3.51876493 1.74827313,3.38114754 1.91803279,3.38114754 C2.08779244,3.38114754 2.22540984,3.51876493 2.22540984,3.68852459 L2.22540984,0.147540984 C2.22540984,0.31730064 2.08779244,0.454918033 1.91803279,0.454918033 Z" id="Rectangle" stroke="#FFFFFF" stroke-width="1.5" transform="translate(1.918033, 1.918033) rotate(45.000000) translate(-1.918033, -1.918033) "></path>
                <path d="M15.7868852,0.454918033 C15.6171256,0.454918033 15.4795082,0.31730064 15.4795082,0.147540984 L15.4795082,3.68852459 C15.4795082,3.51876493 15.6171256,3.38114754 15.7868852,3.38114754 C15.9566449,3.38114754 16.0942623,3.51876493 16.0942623,3.68852459 L16.0942623,0.147540984 C16.0942623,0.31730064 15.9566449,0.454918033 15.7868852,0.454918033 Z" id="Rectangle-Copy" stroke="#FFFFFF" stroke-width="1.5" transform="translate(15.786885, 1.918033) rotate(-45.000000) translate(-15.786885, -1.918033) "></path>
                <path d="M8.71721311,9.57786885 L8.71721311,6.3442623 C8.71721311,6.51402195 8.57959572,6.65163934 8.40983607,6.65163934 C8.24007641,6.65163934 8.10245902,6.51402195 8.10245902,6.3442623 L8.10245902,10.192623 L11.0655738,10.192623 C10.8958141,10.192623 10.7581967,10.0550056 10.7581967,9.8852459 C10.7581967,9.71548624 10.8958141,9.57786885 11.0655738,9.57786885 L8.71721311,9.57786885 Z" id="Combined-Shape" stroke="#FFFFFF" stroke-width="1.5"></path>
                <circle id="Oval" stroke="#FFFFFF" stroke-width="1.5" cx="8.85245902" cy="9.14754098" r="7.80737705"></circle>
            </g>
        </g>
    </g>
</svg>